<svg xmlns="http://www.w3.org/2000/svg" xmlns:xlink="http://www.w3.org/1999/xlink" width="500" zoomAndPan="magnify" viewBox="0 0 375 374.999991" height="500" preserveAspectRatio="xMidYMid meet" version="1.0"><defs><clipPath id="2c4d592770"><path d="M 153 48 L 311.484375 48 L 311.484375 348.5625 L 153 348.5625 Z M 153 48 " clip-rule="nonzero"/></clipPath><clipPath id="7a7e593c3e"><path d="M 63.234375 48 L 222 48 L 222 348.5625 L 63.234375 348.5625 Z M 63.234375 48 " clip-rule="nonzero"/></clipPath></defs><g clip-path="url(#2c4d592770)"><path fill="#ffffff" d="M 160.914062 348.890625 C 158.925781 348.890625 156.929688 348.128906 155.410156 346.609375 C 152.371094 343.570312 152.371094 338.640625 155.410156 335.597656 L 292.289062 198.71875 L 155.410156 61.839844 C 152.371094 58.796875 152.371094 53.867188 155.410156 50.824219 C 158.449219 47.785156 163.382812 47.785156 166.421875 50.824219 L 308.808594 193.210938 C 311.847656 196.253906 311.847656 201.183594 308.808594 204.226562 L 166.421875 346.609375 C 164.902344 348.128906 162.90625 348.890625 160.914062 348.890625 " fill-opacity="1" fill-rule="nonzero"/></g><g clip-path="url(#7a7e593c3e)"><path fill="#ffffff" d="M 71.695312 348.890625 C 69.703125 348.890625 67.710938 348.128906 66.191406 346.609375 C 63.148438 343.570312 63.148438 338.640625 66.191406 335.597656 L 203.070312 198.71875 L 66.191406 61.839844 C 63.148438 58.796875 63.148438 53.867188 66.191406 50.824219 C 69.230469 47.785156 74.160156 47.785156 77.199219 50.824219 L 219.585938 193.210938 C 222.628906 196.253906 222.628906 201.183594 219.585938 204.226562 L 77.199219 346.609375 C 75.679688 348.128906 73.6875 348.890625 71.695312 348.890625 " fill-opacity="1" fill-rule="nonzero"/></g></svg>